<svg xmlns="http://www.w3.org/2000/svg" fill="none" viewBox="0 0 24 24" stroke-width="1.5" stroke="currentColor"><path stroke-linecap="round" stroke-linejoin="round" d="M15.042 21.672 13.684 16.6m0 0-2.51 2.225.569-9.47 5.227 7.917-3.286-.672ZM12 2.25V4.5m5.834.166-1.591 1.591M20.25 10.5H18M15.834 15.834l-1.591-1.591M4.5 12H6.75m3.334-5.834L8.166 4.5M4.5 20.25l1.591-1.591M21.75 12a9.75 9.75 0 0 1-9.75 9.75c-1.334 0-2.59-.26-3.75-.75m-.75-12.75c-.5-1.16-.75-2.41-.75-3.75a9.75 9.75 0 0 1 9.75-9.75c1.334 0 2.59.26 3.75.75m-19.5 12.75A9.75 9.75 0 0 1 12 2.25c1.16 0 2.27.2 3.28.568" /></svg> 